<svg xmlns="http://www.w3.org/2000/svg" xmlns:xlink="http://www.w3.org/1999/xlink" width="500" zoomAndPan="magnify" viewBox="0 0 375 374.999991" height="500" preserveAspectRatio="xMidYMid meet" version="1.2"><defs/><g id="ad37d8a013"><g style="fill:#ffffff;fill-opacity:1;"><g transform="translate(52.101603, 221.249985)"><path style="stroke:none" d="M 63.9375 0 L 48.140625 0 C 47.484375 0 46.90625 -0.25 46.40625 -0.75 C 45.90625 -1.25 45.65625 -1.828125 45.65625 -2.484375 L 45.65625 -21.640625 C 45.65625 -23.554688 45.363281 -25.425781 44.78125 -27.25 C 44.207031 -29.070312 43.148438 -30.582031 41.609375 -31.78125 C 40.078125 -32.988281 37.941406 -33.59375 35.203125 -33.59375 L 27.5 -33.59375 C 26.832031 -33.59375 26.25 -33.34375 25.75 -32.84375 C 25.25 -32.34375 25.039062 -31.765625 25.125 -31.109375 C 25.125 -23.804688 25.1875 -17.75 25.3125 -12.9375 C 25.4375 -8.125 25.539062 -4.640625 25.625 -2.484375 C 25.625 -1.828125 25.394531 -1.25 24.9375 -0.75 C 24.488281 -0.25 23.890625 0 23.140625 0 L 8.703125 0 C 7.960938 0 7.363281 -0.25 6.90625 -0.75 C 6.445312 -1.25 6.21875 -1.828125 6.21875 -2.484375 C 6.300781 -5.222656 6.425781 -10.054688 6.59375 -16.984375 C 6.757812 -23.910156 6.84375 -32.765625 6.84375 -43.546875 C 6.84375 -54.410156 6.757812 -63.28125 6.59375 -70.15625 C 6.425781 -77.039062 6.300781 -81.851562 6.21875 -84.59375 C 6.21875 -85.257812 6.445312 -85.835938 6.90625 -86.328125 C 7.363281 -86.828125 7.960938 -87.078125 8.703125 -87.078125 L 35.703125 -87.078125 C 39.765625 -87.078125 43.617188 -86.703125 47.265625 -85.953125 C 50.921875 -85.210938 54.15625 -83.890625 56.96875 -81.984375 C 59.789062 -80.078125 62.007812 -77.421875 63.625 -74.015625 C 65.25 -70.617188 66.0625 -66.265625 66.0625 -60.953125 C 66.0625 -56.066406 64.960938 -52.023438 62.765625 -48.828125 C 60.566406 -45.640625 57.722656 -43.128906 54.234375 -41.296875 C 53.910156 -41.128906 53.75 -40.835938 53.75 -40.421875 C 53.75 -40.015625 53.953125 -39.6875 54.359375 -39.4375 C 57.515625 -37.945312 60.128906 -35.769531 62.203125 -32.90625 C 64.273438 -30.039062 65.3125 -26.285156 65.3125 -21.640625 C 65.3125 -17.160156 65.4375 -13.320312 65.6875 -10.125 C 65.9375 -6.9375 66.1875 -4.472656 66.4375 -2.734375 C 66.519531 -1.992188 66.3125 -1.351562 65.8125 -0.8125 C 65.3125 -0.269531 64.6875 0 63.9375 0 Z M 35.953125 -73.890625 L 27.75 -73.890625 C 27.082031 -73.890625 26.5 -73.660156 26 -73.203125 C 25.5 -72.753906 25.25 -72.195312 25.25 -71.53125 C 25.25 -68.550781 25.207031 -65.210938 25.125 -61.515625 C 25.039062 -57.828125 25 -53.742188 25 -49.265625 C 25 -48.515625 25.25 -47.910156 25.75 -47.453125 C 26.25 -47.003906 26.832031 -46.78125 27.5 -46.78125 L 35.953125 -46.78125 C 38.691406 -46.78125 40.828125 -47.566406 42.359375 -49.140625 C 43.890625 -50.710938 44.945312 -52.597656 45.53125 -54.796875 C 46.113281 -56.992188 46.40625 -59.046875 46.40625 -60.953125 C 46.40625 -64.273438 45.800781 -66.867188 44.59375 -68.734375 C 43.394531 -70.597656 41.984375 -71.921875 40.359375 -72.703125 C 38.742188 -73.492188 37.273438 -73.890625 35.953125 -73.890625 Z M 35.953125 -73.890625 "/></g></g><g style="fill:#ffffff;fill-opacity:1;"><g transform="translate(113.053645, 221.249985)"><path style="stroke:none" d="M 24.75 -15.671875 C 24.75 -15.015625 24.976562 -14.4375 25.4375 -13.9375 C 25.894531 -13.4375 26.457031 -13.1875 27.125 -13.1875 L 51.375 -13.1875 C 52.039062 -13.1875 52.625 -12.9375 53.125 -12.4375 C 53.625 -11.9375 53.875 -11.359375 53.875 -10.703125 L 53.875 -2.484375 C 53.875 -1.828125 53.625 -1.25 53.125 -0.75 C 52.625 -0.25 52.039062 0 51.375 0 L 8.703125 0 C 8.046875 0 7.46875 -0.25 6.96875 -0.75 C 6.46875 -1.25 6.21875 -1.828125 6.21875 -2.484375 L 6.21875 -84.59375 C 6.21875 -85.257812 6.46875 -85.835938 6.96875 -86.328125 C 7.46875 -86.828125 8.046875 -87.078125 8.703125 -87.078125 L 23.265625 -87.078125 C 24.015625 -87.078125 24.613281 -86.828125 25.0625 -86.328125 C 25.519531 -85.835938 25.75 -85.257812 25.75 -84.59375 C 25.75 -82.351562 25.6875 -78.847656 25.5625 -74.078125 C 25.4375 -69.316406 25.332031 -63.738281 25.25 -57.34375 C 25.164062 -50.957031 25.0625 -44.175781 24.9375 -37 C 24.8125 -29.832031 24.75 -22.722656 24.75 -15.671875 Z M 24.75 -15.671875 "/></g></g><g style="fill:#ffffff;fill-opacity:1;"><g transform="translate(160.819862, 221.249985)"><path style="stroke:none" d="M 36.703125 -43.546875 C 36.703125 -44.203125 36.925781 -44.78125 37.375 -45.28125 C 37.832031 -45.78125 38.394531 -46.03125 39.0625 -46.03125 L 64.4375 -46.03125 C 65.101562 -46.03125 65.664062 -45.78125 66.125 -45.28125 C 66.582031 -44.78125 66.8125 -44.203125 66.8125 -43.546875 L 66.8125 -26.25 C 66.8125 -20.9375 65.851562 -16.226562 63.9375 -12.125 C 62.03125 -8.019531 58.859375 -4.785156 54.421875 -2.421875 C 49.984375 -0.0546875 44.035156 1.125 36.578125 1.125 C 28.941406 1.125 22.90625 -0.203125 18.46875 -2.859375 C 14.03125 -5.515625 10.878906 -8.9375 9.015625 -13.125 C 7.148438 -17.3125 6.21875 -21.6875 6.21875 -26.25 C 6.21875 -27.988281 6.257812 -29.644531 6.34375 -31.21875 C 6.425781 -32.800781 6.53125 -34.546875 6.65625 -36.453125 C 6.78125 -38.359375 6.84375 -40.722656 6.84375 -43.546875 C 6.84375 -46.359375 6.78125 -48.71875 6.65625 -50.625 C 6.53125 -52.539062 6.425781 -54.285156 6.34375 -55.859375 C 6.257812 -57.429688 6.21875 -59.085938 6.21875 -60.828125 C 6.21875 -66.140625 7.191406 -70.847656 9.140625 -74.953125 C 11.085938 -79.054688 14.257812 -82.289062 18.65625 -84.65625 C 23.050781 -87.019531 29.023438 -88.203125 36.578125 -88.203125 C 43.628906 -88.203125 49.3125 -87.019531 53.625 -84.65625 C 57.9375 -82.289062 61.128906 -79.242188 63.203125 -75.515625 C 65.273438 -71.785156 66.476562 -67.804688 66.8125 -63.578125 C 66.8125 -62.828125 66.582031 -62.179688 66.125 -61.640625 C 65.664062 -61.097656 65.0625 -60.828125 64.3125 -60.828125 L 49.640625 -60.828125 C 48.148438 -60.828125 47.320312 -61.617188 47.15625 -63.203125 C 47.070312 -64.609375 46.757812 -66.242188 46.21875 -68.109375 C 45.675781 -69.972656 44.675781 -71.585938 43.21875 -72.953125 C 41.769531 -74.328125 39.640625 -75.015625 36.828125 -75.015625 C 33.503906 -75.015625 31.054688 -74.265625 29.484375 -72.765625 C 27.910156 -71.273438 26.914062 -69.429688 26.5 -67.234375 C 26.082031 -65.035156 25.875 -62.898438 25.875 -60.828125 L 25.875 -26.25 C 25.875 -25.5 25.9375 -24.359375 26.0625 -22.828125 C 26.1875 -21.296875 26.554688 -19.695312 27.171875 -18.03125 C 27.796875 -16.375 28.832031 -14.960938 30.28125 -13.796875 C 31.738281 -12.640625 33.753906 -12.0625 36.328125 -12.0625 C 39.554688 -12.0625 42.039062 -12.804688 43.78125 -14.296875 C 45.53125 -15.796875 46.691406 -17.644531 47.265625 -19.84375 C 47.847656 -22.039062 48.140625 -24.175781 48.140625 -26.25 C 48.140625 -27.570312 48.140625 -28.984375 48.140625 -30.484375 C 48.054688 -31.140625 47.785156 -31.695312 47.328125 -32.15625 C 46.878906 -32.613281 46.320312 -32.84375 45.65625 -32.84375 L 39.0625 -32.84375 C 38.394531 -32.84375 37.832031 -33.070312 37.375 -33.53125 C 36.925781 -33.988281 36.703125 -34.585938 36.703125 -35.328125 Z M 36.703125 -43.546875 "/></g></g><g style="fill:#000000;fill-opacity:1;"><g transform="translate(222.269565, 221.249985)"><path style="stroke:none" d=""/></g></g><g style="fill:#ffffff;fill-opacity:1;"><g transform="translate(231.764172, 130.14843)"><path style="stroke:none" d="M 8.59375 25.859375 C 8.59375 27.929688 9.019531 29.554688 9.875 30.734375 C 10.726562 31.921875 11.789062 32.765625 13.0625 33.265625 C 14.332031 33.765625 15.644531 34.070312 17 34.1875 C 18.125 34.3125 18.6875 34.90625 18.6875 35.96875 L 18.6875 45.796875 C 18.6875 46.328125 18.492188 46.753906 18.109375 47.078125 C 17.722656 47.398438 17.296875 47.5625 16.828125 47.5625 C 13.398438 47.332031 10.359375 46.476562 7.703125 45 C 5.046875 43.519531 2.960938 41.242188 1.453125 38.171875 C -0.046875 35.109375 -0.796875 31.066406 -0.796875 26.046875 C -0.796875 20.609375 0.144531 16.3125 2.03125 13.15625 C 3.925781 10 6.363281 7.753906 9.34375 6.421875 C 12.320312 5.085938 15.4375 4.421875 18.6875 4.421875 C 19.925781 4.421875 21.109375 4.453125 22.234375 4.515625 C 23.359375 4.578125 24.597656 4.648438 25.953125 4.734375 C 27.304688 4.828125 28.988281 4.875 31 4.875 C 33.007812 4.875 34.691406 4.828125 36.046875 4.734375 C 37.410156 4.648438 38.648438 4.578125 39.765625 4.515625 C 40.890625 4.453125 42.070312 4.421875 43.3125 4.421875 C 47.09375 4.421875 50.441406 5.113281 53.359375 6.5 C 56.285156 7.894531 58.585938 10.15625 60.265625 13.28125 C 61.953125 16.414062 62.796875 20.671875 62.796875 26.046875 C 62.796875 31.066406 61.953125 35.109375 60.265625 38.171875 C 58.585938 41.242188 56.421875 43.519531 53.765625 45 C 51.109375 46.476562 48.273438 47.332031 45.265625 47.5625 C 44.734375 47.5625 44.273438 47.398438 43.890625 47.078125 C 43.503906 46.753906 43.3125 46.328125 43.3125 45.796875 L 43.3125 35.34375 C 43.3125 34.28125 43.875 33.691406 45 33.578125 C 46 33.515625 47.160156 33.289062 48.484375 32.90625 C 49.816406 32.519531 50.96875 31.8125 51.9375 30.78125 C 52.914062 29.75 53.40625 28.226562 53.40625 26.21875 C 53.40625 23.851562 52.875 22.109375 51.8125 20.984375 C 50.75 19.867188 49.4375 19.160156 47.875 18.859375 C 46.3125 18.566406 44.789062 18.421875 43.3125 18.421875 L 18.6875 18.421875 C 18.15625 18.421875 17.34375 18.460938 16.25 18.546875 C 15.15625 18.640625 14.019531 18.90625 12.84375 19.34375 C 11.664062 19.789062 10.660156 20.53125 9.828125 21.5625 C 9.003906 22.601562 8.59375 24.035156 8.59375 25.859375 Z M 8.59375 25.859375 "/></g></g><g style="fill:#ffffff;fill-opacity:1;"><g transform="translate(231.764172, 173.813933)"><path style="stroke:none" d="M 43.3125 47.5625 C 42.070312 47.5625 40.890625 47.53125 39.765625 47.46875 C 38.648438 47.414062 37.410156 47.359375 36.046875 47.296875 C 34.691406 47.242188 33.007812 47.21875 31 47.21875 C 28.988281 47.21875 27.304688 47.242188 25.953125 47.296875 C 24.597656 47.359375 23.359375 47.414062 22.234375 47.46875 C 21.109375 47.53125 19.925781 47.5625 18.6875 47.5625 C 14.90625 47.5625 11.550781 46.878906 8.625 45.515625 C 5.707031 44.160156 3.40625 41.90625 1.71875 38.75 C 0.0390625 35.59375 -0.796875 31.359375 -0.796875 26.046875 C -0.796875 20.609375 0.144531 16.3125 2.03125 13.15625 C 3.925781 10 6.363281 7.753906 9.34375 6.421875 C 12.320312 5.085938 15.4375 4.421875 18.6875 4.421875 C 19.925781 4.421875 21.109375 4.453125 22.234375 4.515625 C 23.359375 4.578125 24.597656 4.648438 25.953125 4.734375 C 27.304688 4.828125 28.988281 4.875 31 4.875 C 33.007812 4.875 34.691406 4.828125 36.046875 4.734375 C 37.410156 4.648438 38.648438 4.578125 39.765625 4.515625 C 40.890625 4.453125 42.070312 4.421875 43.3125 4.421875 C 47.09375 4.421875 50.441406 5.113281 53.359375 6.5 C 56.285156 7.894531 58.585938 10.15625 60.265625 13.28125 C 61.953125 16.414062 62.796875 20.671875 62.796875 26.046875 C 62.796875 31.421875 61.851562 35.6875 59.96875 38.84375 C 58.082031 42 55.644531 44.238281 52.65625 45.5625 C 49.675781 46.894531 46.5625 47.5625 43.3125 47.5625 Z M 8.59375 25.859375 C 8.59375 28.160156 9.125 29.875 10.1875 31 C 11.25 32.125 12.5625 32.847656 14.125 33.171875 C 15.6875 33.492188 17.207031 33.65625 18.6875 33.65625 L 43.3125 33.65625 C 43.84375 33.65625 44.65625 33.597656 45.75 33.484375 C 46.84375 33.367188 47.976562 33.085938 49.15625 32.640625 C 50.34375 32.203125 51.347656 31.476562 52.171875 30.46875 C 52.992188 29.46875 53.40625 28.050781 53.40625 26.21875 C 53.40625 23.851562 52.875 22.109375 51.8125 20.984375 C 50.75 19.867188 49.4375 19.160156 47.875 18.859375 C 46.3125 18.566406 44.789062 18.421875 43.3125 18.421875 L 18.6875 18.421875 C 18.15625 18.421875 17.34375 18.460938 16.25 18.546875 C 15.15625 18.640625 14.019531 18.90625 12.84375 19.34375 C 11.664062 19.789062 10.660156 20.53125 9.828125 21.5625 C 9.003906 22.601562 8.59375 24.035156 8.59375 25.859375 Z M 8.59375 25.859375 "/></g></g><g style="fill:#000000;fill-opacity:1;"><g transform="translate(231.764172, 217.569786)"><path style="stroke:none" d=""/></g></g><g style="fill:#ffffff;fill-opacity:1;"><g transform="translate(292.452905, 221.249985)"><path style="stroke:none" d="M 26.25 -16.046875 L 26.625 -2.484375 C 26.625 -1.828125 26.375 -1.25 25.875 -0.75 C 25.375 -0.25 24.796875 0 24.140625 0 L 8.703125 0 C 7.960938 0 7.363281 -0.25 6.90625 -0.75 C 6.445312 -1.25 6.21875 -1.828125 6.21875 -2.484375 L 6.59375 -16.046875 C 6.59375 -16.710938 6.820312 -17.289062 7.28125 -17.78125 C 7.738281 -18.28125 8.296875 -18.53125 8.953125 -18.53125 L 23.765625 -18.53125 C 24.421875 -18.53125 25 -18.28125 25.5 -17.78125 C 26 -17.289062 26.25 -16.710938 26.25 -16.046875 Z M 26.25 -16.046875 "/></g></g></g></svg>